<mxfile host="Electron" modified="2023-12-03T09:42:21.915Z" agent="Mozilla/5.0 (Windows NT 10.0; Win64; x64) AppleWebKit/537.36 (KHTML, like Gecko) draw.io/22.1.2 Chrome/114.0.5735.289 Electron/25.9.4 Safari/537.36" etag="wdnUtCPMV5eWpS8ZQaAm" version="22.1.2" type="device">
  <diagram id="C5RBs43oDa-KdzZeNtuy" name="Page-1">
    <mxGraphModel dx="1668" dy="1774" grid="1" gridSize="10" guides="1" tooltips="1" connect="1" arrows="1" fold="1" page="0" pageScale="1" pageWidth="827" pageHeight="1169" math="0" shadow="0">
      <root>
        <mxCell id="WIyWlLk6GJQsqaUBKTNV-0" />
        <mxCell id="WIyWlLk6GJQsqaUBKTNV-1" parent="WIyWlLk6GJQsqaUBKTNV-0" />
        <mxCell id="r1MHjQ_pWAlFVOpTU09R-8" value="&lt;p style=&quot;margin:0px;margin-top:4px;text-align:center;&quot;&gt;&lt;span style=&quot;background-color: initial;&quot;&gt;&lt;i style=&quot;&quot;&gt;public interface&amp;nbsp;&lt;b&gt;GeneralActions&lt;/b&gt;&lt;/i&gt;&lt;/span&gt;&lt;/p&gt;&lt;hr&gt;&lt;p style=&quot;margin:0px;margin-left:4px;&quot;&gt;public void exist()&lt;/p&gt;" style="verticalAlign=top;align=left;overflow=fill;fontSize=12;fontFamily=Helvetica;html=1;whiteSpace=wrap;" parent="WIyWlLk6GJQsqaUBKTNV-1" vertex="1">
          <mxGeometry x="130" y="-190" width="190" height="70" as="geometry" />
        </mxCell>
        <mxCell id="r1MHjQ_pWAlFVOpTU09R-9" value="&lt;p style=&quot;margin:0px;margin-top:4px;text-align:center;&quot;&gt;&lt;span style=&quot;background-color: initial;&quot;&gt;&lt;i style=&quot;background-color: rgb(26, 26, 26);&quot;&gt;public interface&amp;nbsp;&lt;b&gt;VoiceActions&lt;/b&gt;&lt;/i&gt;&lt;/span&gt;&lt;/p&gt;&lt;hr&gt;&lt;p style=&quot;margin:0px;margin-left:4px;&quot;&gt;&lt;span style=&quot;background-color: rgb(26, 26, 26);&quot;&gt;public void say(String message, Human h, Truth t)&lt;/span&gt;&lt;/p&gt;&lt;div style=&quot;&quot;&gt;&lt;pre style=&quot;&quot;&gt;&lt;font style=&quot;background-color: rgb(26, 26, 26);&quot; face=&quot;Helvetica&quot;&gt;public void say(String message, Truth t)&lt;/font&gt;&lt;/pre&gt;&lt;/div&gt;" style="verticalAlign=top;align=left;overflow=fill;fontSize=12;fontFamily=Helvetica;html=1;whiteSpace=wrap;fontColor=#F0F0F0;" parent="WIyWlLk6GJQsqaUBKTNV-1" vertex="1">
          <mxGeometry x="320" y="-190" width="280" height="110" as="geometry" />
        </mxCell>
        <mxCell id="r1MHjQ_pWAlFVOpTU09R-10" value="&lt;p style=&quot;margin:0px;margin-top:4px;text-align:center;&quot;&gt;&lt;span style=&quot;background-color: initial;&quot;&gt;&lt;i style=&quot;&quot;&gt;public interface&amp;nbsp;&lt;b&gt;PhysicalActions&lt;/b&gt;&lt;/i&gt;&lt;/span&gt;&lt;/p&gt;&lt;hr&gt;&lt;p style=&quot;margin:0px;margin-left:4px;&quot;&gt;&lt;span style=&quot;background-color: rgb(26, 26, 26);&quot;&gt;public void climb(Object o, Truth t)&lt;br&gt;&lt;/span&gt;&lt;/p&gt;&lt;div style=&quot;&quot;&gt;&lt;pre style=&quot;&quot;&gt;&lt;font style=&quot;background-color: rgb(26, 26, 26);&quot; face=&quot;Helvetica&quot;&gt;public void climb(Truth t)&lt;/font&gt;&lt;/pre&gt;&lt;pre style=&quot;&quot;&gt;&lt;font style=&quot;background-color: rgb(26, 26, 26);&quot; face=&quot;Helvetica&quot;&gt;public void go(Truth t)&lt;/font&gt;&lt;/pre&gt;&lt;/div&gt;" style="verticalAlign=top;align=left;overflow=fill;fontSize=12;fontFamily=Helvetica;html=1;whiteSpace=wrap;fontColor=#F0F0F0;" parent="WIyWlLk6GJQsqaUBKTNV-1" vertex="1">
          <mxGeometry x="600" y="-190" width="280" height="140" as="geometry" />
        </mxCell>
        <mxCell id="r1MHjQ_pWAlFVOpTU09R-11" value="&lt;p style=&quot;margin:0px;margin-top:4px;text-align:center;&quot;&gt;&lt;span style=&quot;background-color: initial;&quot;&gt;&lt;i style=&quot;&quot;&gt;public interface&amp;nbsp;&lt;b&gt;MentalActions&lt;/b&gt;&lt;/i&gt;&lt;/span&gt;&lt;/p&gt;&lt;hr&gt;&lt;p style=&quot;margin:0px;margin-left:4px;&quot;&gt;&lt;span style=&quot;background-color: rgb(26, 26, 26);&quot;&gt;public void decide(String decision, Truth t)&lt;br&gt;&lt;/span&gt;&lt;/p&gt;&lt;div style=&quot;&quot;&gt;&lt;pre style=&quot;&quot;&gt;&lt;font style=&quot;background-color: rgb(26, 26, 26);&quot; face=&quot;Helvetica&quot;&gt;public void understand(String thought, Truth t)&lt;/font&gt;&lt;/pre&gt;&lt;pre style=&quot;&quot;&gt;&lt;font style=&quot;background-color: rgb(26, 26, 26);&quot; face=&quot;Helvetica&quot;&gt;public void know(String knownInformation, Truth t)&lt;/font&gt;&lt;/pre&gt;&lt;pre style=&quot;&quot;&gt;&lt;font style=&quot;background-color: rgb(26, 26, 26);&quot; face=&quot;Helvetica&quot;&gt;public void want(String wish, Truth t)&lt;/font&gt;&lt;/pre&gt;&lt;/div&gt;" style="verticalAlign=top;align=left;overflow=fill;fontSize=12;fontFamily=Helvetica;html=1;whiteSpace=wrap;fontColor=#F0F0F0;" parent="WIyWlLk6GJQsqaUBKTNV-1" vertex="1">
          <mxGeometry x="880" y="-190" width="280" height="160" as="geometry" />
        </mxCell>
        <mxCell id="r1MHjQ_pWAlFVOpTU09R-12" value="&lt;p style=&quot;margin:0px;margin-top:4px;text-align:center;&quot;&gt;&lt;b&gt;public class Human&lt;/b&gt;&lt;/p&gt;&lt;hr size=&quot;1&quot;&gt;&lt;p style=&quot;margin:0px;margin-left:4px;&quot;&gt;private String name&lt;/p&gt;&lt;p style=&quot;margin:0px;margin-left:4px;&quot;&gt;private final int dna&lt;/p&gt;&lt;p style=&quot;margin:0px;margin-left:4px;&quot;&gt;private final Gender gender&lt;/p&gt;&lt;hr&gt;public Human(String name, int dna, Gender gender)&lt;br&gt;public Human(String name, Gender gender)&lt;br&gt;&lt;hr size=&quot;1&quot;&gt;&lt;p style=&quot;margin:0px;margin-left:4px;&quot;&gt;public void exist()&lt;/p&gt;&lt;p style=&quot;margin: 0px 0px 0px 4px;&quot;&gt;public void say(String message, Human h, Truth t)&lt;/p&gt;&lt;p style=&quot;margin: 0px 0px 0px 4px;&quot;&gt;&lt;span style=&quot;background-color: rgb(26, 26, 26);&quot;&gt;public void say(String message, Truth t)&lt;/span&gt;&lt;/p&gt;&lt;p style=&quot;margin: 0px 0px 0px 4px;&quot;&gt;public void climb(Object o, Truth t)&lt;/p&gt;&lt;p style=&quot;margin: 0px 0px 0px 4px;&quot;&gt;&lt;span style=&quot;background-color: rgb(26, 26, 26);&quot;&gt;public void climb(Truth t)&lt;/span&gt;&lt;/p&gt;&lt;p style=&quot;margin: 0px 0px 0px 4px;&quot;&gt;&lt;span style=&quot;background-color: rgb(26, 26, 26);&quot;&gt;public void go(Truth t)&lt;/span&gt;&lt;/p&gt;&lt;p style=&quot;margin: 0px 0px 0px 4px;&quot;&gt;public void decide(String decision, Truth t)&lt;/p&gt;&lt;p style=&quot;margin: 0px 0px 0px 4px;&quot;&gt;&lt;span style=&quot;background-color: rgb(26, 26, 26);&quot;&gt;public void understand(String thought, Truth t)&lt;/span&gt;&lt;/p&gt;&lt;p style=&quot;margin: 0px 0px 0px 4px;&quot;&gt;&lt;span style=&quot;background-color: rgb(26, 26, 26);&quot;&gt;public void know(String knownInformation, Truth t)&lt;/span&gt;&lt;/p&gt;&lt;p style=&quot;margin: 0px 0px 0px 4px;&quot;&gt;&lt;span style=&quot;background-color: rgb(26, 26, 26);&quot;&gt;public void want(String wish, Truth t)&lt;/span&gt;&lt;/p&gt;&lt;p style=&quot;margin: 0px 0px 0px 4px;&quot;&gt;&lt;span style=&quot;background-color: rgb(26, 26, 26);&quot;&gt;public String toString()&lt;/span&gt;&lt;/p&gt;&lt;p style=&quot;margin: 0px 0px 0px 4px;&quot;&gt;&lt;span style=&quot;background-color: rgb(26, 26, 26);&quot;&gt;public int hashCode()&lt;/span&gt;&lt;/p&gt;&lt;p style=&quot;margin: 0px 0px 0px 4px;&quot;&gt;&lt;span style=&quot;background-color: rgb(26, 26, 26);&quot;&gt;public boolean equals(Object obj)&lt;/span&gt;&lt;/p&gt;&lt;p style=&quot;margin: 0px 0px 0px 4px;&quot;&gt;&lt;span style=&quot;background-color: rgb(26, 26, 26);&quot;&gt;public void setName(String name)&lt;/span&gt;&lt;/p&gt;&lt;p style=&quot;margin: 0px 0px 0px 4px;&quot;&gt;&lt;span style=&quot;background-color: rgb(26, 26, 26);&quot;&gt;public String getName()&lt;/span&gt;&lt;/p&gt;" style="verticalAlign=top;align=left;overflow=fill;fontSize=12;fontFamily=Helvetica;html=1;whiteSpace=wrap;" parent="WIyWlLk6GJQsqaUBKTNV-1" vertex="1">
          <mxGeometry x="1120" y="100" width="360" height="350" as="geometry" />
        </mxCell>
        <mxCell id="r1MHjQ_pWAlFVOpTU09R-14" value="" style="endArrow=block;dashed=1;endFill=0;endSize=12;html=1;rounded=0;exitX=0.5;exitY=0;exitDx=0;exitDy=0;entryX=0.5;entryY=1;entryDx=0;entryDy=0;" parent="WIyWlLk6GJQsqaUBKTNV-1" source="r1MHjQ_pWAlFVOpTU09R-12" target="r1MHjQ_pWAlFVOpTU09R-8" edge="1">
          <mxGeometry width="160" relative="1" as="geometry">
            <mxPoint x="624" y="10" as="sourcePoint" />
            <mxPoint x="464" y="10" as="targetPoint" />
            <Array as="points">
              <mxPoint x="1300" y="40" />
              <mxPoint x="225" y="40" />
            </Array>
          </mxGeometry>
        </mxCell>
        <mxCell id="r1MHjQ_pWAlFVOpTU09R-15" value="" style="endArrow=block;dashed=1;endFill=0;endSize=12;html=1;rounded=0;exitX=0.5;exitY=0;exitDx=0;exitDy=0;entryX=0.5;entryY=0;entryDx=0;entryDy=0;" parent="WIyWlLk6GJQsqaUBKTNV-1" edge="1" source="r1MHjQ_pWAlFVOpTU09R-12">
          <mxGeometry width="160" relative="1" as="geometry">
            <mxPoint x="600" y="100" as="sourcePoint" />
            <mxPoint x="450" y="-80" as="targetPoint" />
            <Array as="points">
              <mxPoint x="1300" />
              <mxPoint x="450" />
            </Array>
          </mxGeometry>
        </mxCell>
        <mxCell id="r1MHjQ_pWAlFVOpTU09R-16" value="" style="endArrow=block;dashed=1;endFill=0;endSize=12;html=1;rounded=0;exitX=0.5;exitY=0;exitDx=0;exitDy=0;entryX=0.5;entryY=1;entryDx=0;entryDy=0;" parent="WIyWlLk6GJQsqaUBKTNV-1" source="r1MHjQ_pWAlFVOpTU09R-12" target="r1MHjQ_pWAlFVOpTU09R-10" edge="1">
          <mxGeometry width="160" relative="1" as="geometry">
            <mxPoint x="1300" y="90" as="sourcePoint" />
            <mxPoint x="440" y="70" as="targetPoint" />
            <Array as="points">
              <mxPoint x="1300" y="20" />
              <mxPoint x="740" y="20" />
            </Array>
          </mxGeometry>
        </mxCell>
        <mxCell id="r1MHjQ_pWAlFVOpTU09R-17" value="" style="endArrow=block;dashed=1;endFill=0;endSize=12;html=1;rounded=0;exitX=0.5;exitY=0;exitDx=0;exitDy=0;entryX=0.5;entryY=1;entryDx=0;entryDy=0;" parent="WIyWlLk6GJQsqaUBKTNV-1" source="r1MHjQ_pWAlFVOpTU09R-12" target="r1MHjQ_pWAlFVOpTU09R-11" edge="1">
          <mxGeometry width="160" relative="1" as="geometry">
            <mxPoint x="600" y="100" as="sourcePoint" />
            <mxPoint x="440" y="70" as="targetPoint" />
            <Array as="points">
              <mxPoint x="1300" y="60" />
              <mxPoint x="1020" y="60" />
            </Array>
          </mxGeometry>
        </mxCell>
        <mxCell id="_aCv5gPqLr9jdvD882T8-0" value="&lt;p style=&quot;margin:0px;margin-top:4px;text-align:center;&quot;&gt;&lt;b style=&quot;background-color: initial;&quot;&gt;public enum Truth&lt;/b&gt;&lt;/p&gt;&lt;hr size=&quot;1&quot;&gt;&lt;div style=&quot;height:2px;&quot;&gt;TRUE (&quot; &quot;)&lt;br&gt;FALSE(&quot; не &quot;)&lt;br&gt;&lt;hr&gt;private final String isTrue&lt;br&gt;&lt;hr&gt;Truth (String isTrue)&lt;br&gt;&lt;hr&gt;public String toString()&lt;/div&gt;&lt;div style=&quot;height:2px;&quot;&gt;&lt;br&gt;&lt;/div&gt;" style="verticalAlign=top;align=left;overflow=fill;fontSize=12;fontFamily=Helvetica;html=1;whiteSpace=wrap;" parent="WIyWlLk6GJQsqaUBKTNV-1" vertex="1">
          <mxGeometry x="520" y="-520" width="140" height="180" as="geometry" />
        </mxCell>
        <mxCell id="_aCv5gPqLr9jdvD882T8-1" value="Use" style="endArrow=open;endSize=12;dashed=1;html=1;rounded=0;exitX=0.5;exitY=0;exitDx=0;exitDy=0;entryX=0.5;entryY=1;entryDx=0;entryDy=0;" parent="WIyWlLk6GJQsqaUBKTNV-1" source="r1MHjQ_pWAlFVOpTU09R-11" target="_aCv5gPqLr9jdvD882T8-0" edge="1">
          <mxGeometry width="160" relative="1" as="geometry">
            <mxPoint x="1040" y="-280" as="sourcePoint" />
            <mxPoint x="600" y="-290" as="targetPoint" />
            <Array as="points">
              <mxPoint x="1020" y="-280" />
              <mxPoint x="590" y="-280" />
            </Array>
          </mxGeometry>
        </mxCell>
        <mxCell id="_aCv5gPqLr9jdvD882T8-2" value="Use" style="endArrow=open;endSize=12;dashed=1;html=1;rounded=0;exitX=0.5;exitY=0;exitDx=0;exitDy=0;entryX=0.5;entryY=1;entryDx=0;entryDy=0;" parent="WIyWlLk6GJQsqaUBKTNV-1" source="r1MHjQ_pWAlFVOpTU09R-10" target="_aCv5gPqLr9jdvD882T8-0" edge="1">
          <mxGeometry width="160" relative="1" as="geometry">
            <mxPoint x="760" y="-290" as="sourcePoint" />
            <mxPoint x="600" y="-290" as="targetPoint" />
            <Array as="points">
              <mxPoint x="740" y="-280" />
              <mxPoint x="590" y="-280" />
            </Array>
          </mxGeometry>
        </mxCell>
        <mxCell id="_aCv5gPqLr9jdvD882T8-3" value="Use" style="endArrow=open;endSize=12;dashed=1;html=1;rounded=0;exitX=0.5;exitY=0;exitDx=0;exitDy=0;entryX=0.5;entryY=1;entryDx=0;entryDy=0;" parent="WIyWlLk6GJQsqaUBKTNV-1" source="r1MHjQ_pWAlFVOpTU09R-9" target="_aCv5gPqLr9jdvD882T8-0" edge="1">
          <mxGeometry width="160" relative="1" as="geometry">
            <mxPoint x="760" y="-290" as="sourcePoint" />
            <mxPoint x="750" y="-360" as="targetPoint" />
            <Array as="points">
              <mxPoint x="460" y="-280" />
              <mxPoint x="590" y="-280" />
            </Array>
          </mxGeometry>
        </mxCell>
        <mxCell id="_aCv5gPqLr9jdvD882T8-4" value="Use" style="endArrow=open;endSize=12;dashed=1;html=1;rounded=0;exitX=0.5;exitY=0;exitDx=0;exitDy=0;entryX=0.5;entryY=1;entryDx=0;entryDy=0;" parent="WIyWlLk6GJQsqaUBKTNV-1" source="r1MHjQ_pWAlFVOpTU09R-8" target="_aCv5gPqLr9jdvD882T8-0" edge="1">
          <mxGeometry width="160" relative="1" as="geometry">
            <mxPoint x="760" y="-290" as="sourcePoint" />
            <mxPoint x="600" y="-290" as="targetPoint" />
            <Array as="points">
              <mxPoint x="220" y="-280" />
              <mxPoint x="590" y="-280" />
            </Array>
          </mxGeometry>
        </mxCell>
        <mxCell id="_aCv5gPqLr9jdvD882T8-5" value="Use" style="endArrow=open;endSize=12;dashed=1;html=1;rounded=0;exitX=0.75;exitY=0;exitDx=0;exitDy=0;entryX=0.5;entryY=1;entryDx=0;entryDy=0;" parent="WIyWlLk6GJQsqaUBKTNV-1" source="r1MHjQ_pWAlFVOpTU09R-12" target="_aCv5gPqLr9jdvD882T8-0" edge="1">
          <mxGeometry width="160" relative="1" as="geometry">
            <mxPoint x="1370" y="-280" as="sourcePoint" />
            <mxPoint x="600" y="-290" as="targetPoint" />
            <Array as="points">
              <mxPoint x="1390" y="-280" />
              <mxPoint x="590" y="-280" />
            </Array>
          </mxGeometry>
        </mxCell>
        <mxCell id="_aCv5gPqLr9jdvD882T8-6" value="&lt;p style=&quot;margin:0px;margin-top:4px;text-align:center;&quot;&gt;&lt;b style=&quot;background-color: initial;&quot;&gt;public enum Gender&lt;/b&gt;&lt;/p&gt;&lt;hr size=&quot;1&quot;&gt;&lt;div style=&quot;height:2px;&quot;&gt;MALE&lt;br&gt;FEMALE&lt;br&gt;NEUTER&lt;br&gt;&lt;/div&gt;" style="verticalAlign=top;align=left;overflow=fill;fontSize=12;fontFamily=Helvetica;html=1;whiteSpace=wrap;" parent="WIyWlLk6GJQsqaUBKTNV-1" vertex="1">
          <mxGeometry x="1500" y="-340" width="140" height="100" as="geometry" />
        </mxCell>
        <mxCell id="_aCv5gPqLr9jdvD882T8-7" value="Use" style="endArrow=open;endSize=12;dashed=1;html=1;rounded=0;exitX=0.75;exitY=0;exitDx=0;exitDy=0;entryX=0.5;entryY=1;entryDx=0;entryDy=0;" parent="WIyWlLk6GJQsqaUBKTNV-1" source="r1MHjQ_pWAlFVOpTU09R-12" target="_aCv5gPqLr9jdvD882T8-6" edge="1">
          <mxGeometry width="160" relative="1" as="geometry">
            <mxPoint x="1700" y="-120" as="sourcePoint" />
            <mxPoint x="1540" y="-120" as="targetPoint" />
            <Array as="points">
              <mxPoint x="1390" y="-120" />
              <mxPoint x="1570" y="-120" />
            </Array>
          </mxGeometry>
        </mxCell>
        <mxCell id="_aCv5gPqLr9jdvD882T8-8" value="&lt;p style=&quot;margin:0px;margin-top:4px;text-align:center;&quot;&gt;&lt;i style=&quot;&quot;&gt;&lt;span style=&quot;background-color: rgb(26, 26, 26);&quot;&gt;public interface&amp;nbsp;&lt;/span&gt;&lt;b&gt;PaperMediaActions&lt;/b&gt;&lt;/i&gt;&lt;/p&gt;&lt;hr&gt;&lt;p style=&quot;margin:0px;margin-left:4px;&quot;&gt;&lt;span style=&quot;background-color: rgb(26, 26, 26);&quot;&gt;public void printout()&lt;/span&gt;&lt;/p&gt;&lt;div style=&quot;&quot;&gt;&lt;pre style=&quot;&quot;&gt;&lt;font style=&quot;background-color: rgb(26, 26, 26);&quot; face=&quot;Helvetica&quot;&gt;public void publish()&lt;/font&gt;&lt;/pre&gt;&lt;pre style=&quot;&quot;&gt;&lt;font style=&quot;background-color: rgb(26, 26, 26);&quot; face=&quot;Helvetica&quot;&gt;public void read()&lt;/font&gt;&lt;/pre&gt;&lt;/div&gt;" style="verticalAlign=top;align=left;overflow=fill;fontSize=12;fontFamily=Helvetica;html=1;whiteSpace=wrap;fontColor=#F0F0F0;" parent="WIyWlLk6GJQsqaUBKTNV-1" vertex="1">
          <mxGeometry x="1530" y="-70" width="280" height="110" as="geometry" />
        </mxCell>
        <mxCell id="_aCv5gPqLr9jdvD882T8-11" value="&lt;p style=&quot;margin:0px;margin-top:4px;text-align:center;&quot;&gt;&lt;i style=&quot;&quot;&gt;&lt;span style=&quot;background-color: rgb(26, 26, 26);&quot;&gt;public interface&amp;nbsp;&lt;/span&gt;&lt;b&gt;DigitalMediaActions&lt;/b&gt;&lt;/i&gt;&lt;/p&gt;&lt;hr&gt;&lt;p style=&quot;margin:0px;margin-left:4px;&quot;&gt;&lt;span style=&quot;background-color: rgb(26, 26, 26);&quot;&gt;public void tellNewsStory()&lt;/span&gt;&lt;/p&gt;" style="verticalAlign=top;align=left;overflow=fill;fontSize=12;fontFamily=Helvetica;html=1;whiteSpace=wrap;fontColor=#F0F0F0;" parent="WIyWlLk6GJQsqaUBKTNV-1" vertex="1">
          <mxGeometry x="2420" y="-40" width="280" height="60" as="geometry" />
        </mxCell>
        <mxCell id="_aCv5gPqLr9jdvD882T8-12" value="&lt;p style=&quot;margin:0px;margin-top:4px;text-align:center;&quot;&gt;&lt;b style=&quot;background-color: initial;&quot;&gt;public enum MediaType&lt;/b&gt;&lt;/p&gt;&lt;hr size=&quot;1&quot;&gt;&lt;div style=&quot;height:2px;&quot;&gt;TEXT&lt;br&gt;AUDIO&lt;br&gt;VIDEO&lt;/div&gt;" style="verticalAlign=top;align=left;overflow=fill;fontSize=12;fontFamily=Helvetica;html=1;whiteSpace=wrap;" parent="WIyWlLk6GJQsqaUBKTNV-1" vertex="1">
          <mxGeometry x="2770" y="-60" width="160" height="80" as="geometry" />
        </mxCell>
        <mxCell id="_aCv5gPqLr9jdvD882T8-13" value="&lt;p style=&quot;margin:0px;margin-top:4px;text-align:center;&quot;&gt;&lt;b&gt;public abstract class Media&lt;/b&gt;&lt;/p&gt;&lt;hr size=&quot;1&quot;&gt;&lt;p style=&quot;margin:0px;margin-left:4px;&quot;&gt;private String heading&lt;/p&gt;&lt;p style=&quot;margin:0px;margin-left:4px;&quot;&gt;private String information&lt;br&gt;&lt;/p&gt;&lt;hr size=&quot;1&quot;&gt;&lt;p style=&quot;margin:0px;margin-left:4px;&quot;&gt;public Media(String heading, String information)&lt;/p&gt;&lt;hr&gt;public String getInformation()&lt;br&gt;public void setInformation(String information)&lt;br&gt;public String getHeading()&lt;br&gt;public void setHeading(String heading)" style="verticalAlign=top;align=left;overflow=fill;fontSize=12;fontFamily=Helvetica;html=1;whiteSpace=wrap;" parent="WIyWlLk6GJQsqaUBKTNV-1" vertex="1">
          <mxGeometry x="1980" y="-130" width="360" height="170" as="geometry" />
        </mxCell>
        <mxCell id="_aCv5gPqLr9jdvD882T8-14" value="&lt;p style=&quot;margin:0px;margin-top:4px;text-align:center;&quot;&gt;&lt;b&gt;public abstract class PaperMedia&lt;/b&gt;&lt;/p&gt;&lt;hr size=&quot;1&quot;&gt;&lt;p style=&quot;margin:0px;margin-left:4px;&quot;&gt;public PaperMedia(String heading, String information)&lt;/p&gt;&lt;hr&gt;&lt;p style=&quot;margin:0px;margin-left:4px;&quot;&gt;&lt;span style=&quot;background-color: initial;&quot;&gt;public void printout()&lt;/span&gt;&lt;/p&gt;&lt;div&gt;&lt;pre&gt;&lt;font style=&quot;background-color: rgb(26, 26, 26);&quot; face=&quot;Helvetica&quot;&gt;public void publish()&lt;/font&gt;&lt;/pre&gt;&lt;pre&gt;&lt;font style=&quot;background-color: rgb(26, 26, 26);&quot; face=&quot;Helvetica&quot;&gt;public void read()&lt;/font&gt;&lt;/pre&gt;&lt;/div&gt;" style="verticalAlign=top;align=left;overflow=fill;fontSize=12;fontFamily=Helvetica;html=1;whiteSpace=wrap;" parent="WIyWlLk6GJQsqaUBKTNV-1" vertex="1">
          <mxGeometry x="1730" y="160" width="360" height="150" as="geometry" />
        </mxCell>
        <mxCell id="_aCv5gPqLr9jdvD882T8-15" value="Extends" style="endArrow=block;endSize=16;endFill=0;html=1;rounded=0;entryX=0.5;entryY=1;entryDx=0;entryDy=0;exitX=0.5;exitY=0;exitDx=0;exitDy=0;" parent="WIyWlLk6GJQsqaUBKTNV-1" source="_aCv5gPqLr9jdvD882T8-14" target="_aCv5gPqLr9jdvD882T8-13" edge="1">
          <mxGeometry width="160" relative="1" as="geometry">
            <mxPoint x="2020" y="80" as="sourcePoint" />
            <mxPoint x="2200" y="90" as="targetPoint" />
            <Array as="points">
              <mxPoint x="1910" y="90" />
              <mxPoint x="2160" y="90" />
            </Array>
          </mxGeometry>
        </mxCell>
        <mxCell id="_aCv5gPqLr9jdvD882T8-16" value="" style="endArrow=block;dashed=1;endFill=0;endSize=12;html=1;rounded=0;exitX=0.25;exitY=0;exitDx=0;exitDy=0;entryX=0.5;entryY=1;entryDx=0;entryDy=0;" parent="WIyWlLk6GJQsqaUBKTNV-1" source="_aCv5gPqLr9jdvD882T8-14" target="_aCv5gPqLr9jdvD882T8-8" edge="1">
          <mxGeometry width="160" relative="1" as="geometry">
            <mxPoint x="1870" y="140" as="sourcePoint" />
            <mxPoint x="2180" y="50" as="targetPoint" />
            <Array as="points">
              <mxPoint x="1820" y="90" />
              <mxPoint x="1670" y="90" />
            </Array>
          </mxGeometry>
        </mxCell>
        <mxCell id="_aCv5gPqLr9jdvD882T8-17" value="&lt;p style=&quot;margin:0px;margin-top:4px;text-align:center;&quot;&gt;&lt;b&gt;public abstract class DigitalMedia&lt;/b&gt;&lt;/p&gt;&lt;hr size=&quot;1&quot;&gt;private final MediaType mediaType&lt;hr&gt;&lt;p style=&quot;margin:0px;margin-left:4px;&quot;&gt;public DigitalMedia(String heading, String information, MediaType mediaType)&lt;/p&gt;&lt;hr&gt;&lt;p style=&quot;margin:0px;margin-left:4px;&quot;&gt;&lt;span style=&quot;background-color: initial;&quot;&gt;public String getMediaType()&lt;/span&gt;&lt;/p&gt;&lt;div&gt;&lt;pre&gt;&lt;font style=&quot;background-color: rgb(26, 26, 26);&quot; face=&quot;Helvetica&quot;&gt;public void tellNewsStory()&lt;br&gt;&lt;/font&gt;&lt;/pre&gt;&lt;pre&gt;&lt;font style=&quot;background-color: rgb(26, 26, 26);&quot; face=&quot;Helvetica&quot;&gt;public String toString()&lt;/font&gt;&lt;/pre&gt;&lt;pre&gt;&lt;font style=&quot;background-color: rgb(26, 26, 26);&quot; face=&quot;Helvetica&quot;&gt;&lt;br&gt;&lt;/font&gt;&lt;/pre&gt;&lt;/div&gt;" style="verticalAlign=top;align=left;overflow=fill;fontSize=12;fontFamily=Helvetica;html=1;whiteSpace=wrap;" parent="WIyWlLk6GJQsqaUBKTNV-1" vertex="1">
          <mxGeometry x="2380" y="160" width="360" height="180" as="geometry" />
        </mxCell>
        <mxCell id="_aCv5gPqLr9jdvD882T8-18" value="" style="endArrow=block;dashed=1;endFill=0;endSize=12;html=1;rounded=0;exitX=0.5;exitY=0;exitDx=0;exitDy=0;entryX=0.5;entryY=1;entryDx=0;entryDy=0;" parent="WIyWlLk6GJQsqaUBKTNV-1" source="_aCv5gPqLr9jdvD882T8-17" target="_aCv5gPqLr9jdvD882T8-11" edge="1">
          <mxGeometry width="160" relative="1" as="geometry">
            <mxPoint x="2340" y="50" as="sourcePoint" />
            <mxPoint x="2200" y="110" as="targetPoint" />
            <Array as="points" />
          </mxGeometry>
        </mxCell>
        <mxCell id="_aCv5gPqLr9jdvD882T8-19" value="Extends" style="endArrow=block;endSize=16;endFill=0;html=1;rounded=0;exitX=0.25;exitY=0;exitDx=0;exitDy=0;entryX=0.5;entryY=1;entryDx=0;entryDy=0;" parent="WIyWlLk6GJQsqaUBKTNV-1" source="_aCv5gPqLr9jdvD882T8-17" target="_aCv5gPqLr9jdvD882T8-13" edge="1">
          <mxGeometry width="160" relative="1" as="geometry">
            <mxPoint x="2530" y="130" as="sourcePoint" />
            <mxPoint x="2160" y="50" as="targetPoint" />
            <Array as="points">
              <mxPoint x="2470" y="90" />
              <mxPoint x="2160" y="90" />
            </Array>
          </mxGeometry>
        </mxCell>
        <mxCell id="_aCv5gPqLr9jdvD882T8-20" value="Use" style="endArrow=open;endSize=12;dashed=1;html=1;rounded=0;exitX=0.75;exitY=0;exitDx=0;exitDy=0;entryX=0.5;entryY=1;entryDx=0;entryDy=0;" parent="WIyWlLk6GJQsqaUBKTNV-1" source="_aCv5gPqLr9jdvD882T8-17" target="_aCv5gPqLr9jdvD882T8-12" edge="1">
          <mxGeometry width="160" relative="1" as="geometry">
            <mxPoint x="2440" y="150" as="sourcePoint" />
            <mxPoint x="2280" y="150" as="targetPoint" />
            <Array as="points">
              <mxPoint x="2650" y="90" />
              <mxPoint x="2850" y="90" />
            </Array>
          </mxGeometry>
        </mxCell>
        <mxCell id="_aCv5gPqLr9jdvD882T8-21" value="&lt;p style=&quot;margin:0px;margin-top:4px;text-align:center;&quot;&gt;&lt;b&gt;public class TelevisionProgramme&lt;/b&gt;&lt;/p&gt;&lt;hr size=&quot;1&quot;&gt;private int length&lt;hr&gt;&lt;p style=&quot;margin:0px;margin-left:4px;&quot;&gt;public DigitalMedia(String heading, String information, int length)&lt;/p&gt;&lt;hr&gt;&lt;p style=&quot;margin:0px;margin-left:4px;&quot;&gt;&lt;span style=&quot;background-color: initial;&quot;&gt;public int getLength()&lt;/span&gt;&lt;/p&gt;&lt;div&gt;&lt;pre&gt;&lt;font style=&quot;background-color: rgb(26, 26, 26);&quot; face=&quot;Helvetica&quot;&gt;public void setLength()&lt;br&gt;&lt;/font&gt;&lt;/pre&gt;&lt;pre&gt;&lt;font style=&quot;background-color: rgb(26, 26, 26);&quot; face=&quot;Helvetica&quot;&gt;public String toString()&lt;/font&gt;&lt;/pre&gt;&lt;pre&gt;&lt;font style=&quot;background-color: rgb(26, 26, 26);&quot; face=&quot;Helvetica&quot;&gt;public int hashCode()&lt;/font&gt;&lt;/pre&gt;&lt;pre&gt;&lt;font style=&quot;background-color: rgb(26, 26, 26);&quot; face=&quot;Helvetica&quot;&gt;public boolean equals(Object obj)&lt;/font&gt;&lt;/pre&gt;&lt;/div&gt;" style="verticalAlign=top;align=left;overflow=fill;fontSize=12;fontFamily=Helvetica;html=1;whiteSpace=wrap;" parent="WIyWlLk6GJQsqaUBKTNV-1" vertex="1">
          <mxGeometry x="2550" y="420" width="360" height="220" as="geometry" />
        </mxCell>
        <mxCell id="_aCv5gPqLr9jdvD882T8-22" value="Use" style="endArrow=open;endSize=12;dashed=1;html=1;rounded=0;exitX=0.75;exitY=0;exitDx=0;exitDy=0;entryX=0.5;entryY=1;entryDx=0;entryDy=0;" parent="WIyWlLk6GJQsqaUBKTNV-1" source="_aCv5gPqLr9jdvD882T8-21" target="_aCv5gPqLr9jdvD882T8-12" edge="1">
          <mxGeometry width="160" relative="1" as="geometry">
            <mxPoint x="2660" y="170" as="sourcePoint" />
            <mxPoint x="2860" y="30" as="targetPoint" />
            <Array as="points">
              <mxPoint x="2820" y="280" />
              <mxPoint x="2850" y="280" />
            </Array>
          </mxGeometry>
        </mxCell>
        <mxCell id="_aCv5gPqLr9jdvD882T8-23" value="Extends" style="endArrow=block;endSize=16;endFill=0;html=1;rounded=0;entryX=0.5;entryY=1;entryDx=0;entryDy=0;exitX=0.25;exitY=0;exitDx=0;exitDy=0;" parent="WIyWlLk6GJQsqaUBKTNV-1" source="_aCv5gPqLr9jdvD882T8-21" target="_aCv5gPqLr9jdvD882T8-17" edge="1">
          <mxGeometry width="160" relative="1" as="geometry">
            <mxPoint x="2110" y="570" as="sourcePoint" />
            <mxPoint x="2360" y="450" as="targetPoint" />
            <Array as="points">
              <mxPoint x="2640" y="390" />
              <mxPoint x="2560" y="390" />
            </Array>
          </mxGeometry>
        </mxCell>
        <mxCell id="_aCv5gPqLr9jdvD882T8-24" value="&lt;p style=&quot;margin:0px;margin-top:4px;text-align:center;&quot;&gt;&lt;b&gt;public class Newspaper&lt;/b&gt;&lt;/p&gt;&lt;hr size=&quot;1&quot;&gt;&lt;p style=&quot;margin:0px;margin-left:4px;&quot;&gt;public Newspaper(String heading, String information)&lt;/p&gt;&lt;hr&gt;&lt;p style=&quot;margin:0px;margin-left:4px;&quot;&gt;&lt;span style=&quot;background-color: initial;&quot;&gt;public String toString()&lt;/span&gt;&lt;/p&gt;&lt;div&gt;&lt;pre&gt;&lt;font style=&quot;background-color: rgb(26, 26, 26);&quot; face=&quot;Helvetica&quot;&gt;public int hashCode()&lt;/font&gt;&lt;/pre&gt;&lt;pre&gt;&lt;font style=&quot;background-color: rgb(26, 26, 26);&quot; face=&quot;Helvetica&quot;&gt;public boolean equals(Object obj)&lt;/font&gt;&lt;/pre&gt;&lt;/div&gt;" style="verticalAlign=top;align=left;overflow=fill;fontSize=12;fontFamily=Helvetica;html=1;whiteSpace=wrap;" parent="WIyWlLk6GJQsqaUBKTNV-1" vertex="1">
          <mxGeometry x="1520" y="440" width="360" height="160" as="geometry" />
        </mxCell>
        <mxCell id="_aCv5gPqLr9jdvD882T8-25" value="&lt;p style=&quot;margin:0px;margin-top:4px;text-align:center;&quot;&gt;&lt;b&gt;public class Magazine&lt;/b&gt;&lt;/p&gt;&lt;hr&gt;private int pageCount&lt;hr size=&quot;1&quot;&gt;&lt;p style=&quot;margin:0px;margin-left:4px;&quot;&gt;public Magazine(String heading, String information, int pageCount)&lt;/p&gt;&lt;hr&gt;&lt;p style=&quot;margin: 0px 0px 0px 4px;&quot;&gt;public String toString()&lt;/p&gt;&lt;div&gt;&lt;pre&gt;&lt;font style=&quot;background-color: rgb(26, 26, 26);&quot; face=&quot;Helvetica&quot;&gt;public int hashCode()&lt;/font&gt;&lt;/pre&gt;&lt;pre&gt;&lt;font style=&quot;background-color: rgb(26, 26, 26);&quot; face=&quot;Helvetica&quot;&gt;public boolean equals(Object obj)&lt;/font&gt;&lt;/pre&gt;&lt;/div&gt;" style="verticalAlign=top;align=left;overflow=fill;fontSize=12;fontFamily=Helvetica;html=1;whiteSpace=wrap;" parent="WIyWlLk6GJQsqaUBKTNV-1" vertex="1">
          <mxGeometry x="1930" y="440" width="360" height="160" as="geometry" />
        </mxCell>
        <mxCell id="_aCv5gPqLr9jdvD882T8-26" value="Extends" style="endArrow=block;endSize=16;endFill=0;html=1;rounded=0;entryX=0.5;entryY=1;entryDx=0;entryDy=0;exitX=0.5;exitY=0;exitDx=0;exitDy=0;" parent="WIyWlLk6GJQsqaUBKTNV-1" source="_aCv5gPqLr9jdvD882T8-24" target="_aCv5gPqLr9jdvD882T8-14" edge="1">
          <mxGeometry width="160" relative="1" as="geometry">
            <mxPoint x="1500" y="410" as="sourcePoint" />
            <mxPoint x="1910" y="340" as="targetPoint" />
            <Array as="points">
              <mxPoint x="1700" y="380" />
              <mxPoint x="1910" y="380" />
            </Array>
          </mxGeometry>
        </mxCell>
        <mxCell id="_aCv5gPqLr9jdvD882T8-27" value="Extends" style="endArrow=block;endSize=16;endFill=0;html=1;rounded=0;entryX=0.5;entryY=1;entryDx=0;entryDy=0;exitX=0.5;exitY=0;exitDx=0;exitDy=0;" parent="WIyWlLk6GJQsqaUBKTNV-1" source="_aCv5gPqLr9jdvD882T8-25" target="_aCv5gPqLr9jdvD882T8-14" edge="1">
          <mxGeometry width="160" relative="1" as="geometry">
            <mxPoint x="2040" y="430" as="sourcePoint" />
            <mxPoint x="1910" y="340" as="targetPoint" />
            <Array as="points">
              <mxPoint x="2110" y="380" />
              <mxPoint x="1910" y="380" />
            </Array>
          </mxGeometry>
        </mxCell>
        <mxCell id="_aCv5gPqLr9jdvD882T8-28" value="&lt;p style=&quot;margin:0px;margin-top:4px;text-align:center;&quot;&gt;&lt;b&gt;public class lab3&lt;/b&gt;&lt;/p&gt;&lt;hr size=&quot;1&quot;&gt;&lt;p style=&quot;margin:0px;margin-left:4px;&quot;&gt;public static void main(String[] args)&lt;/p&gt;" style="verticalAlign=top;align=left;overflow=fill;fontSize=12;fontFamily=Helvetica;html=1;whiteSpace=wrap;" parent="WIyWlLk6GJQsqaUBKTNV-1" vertex="1">
          <mxGeometry x="1900" y="840" width="360" height="60" as="geometry" />
        </mxCell>
        <mxCell id="_aCv5gPqLr9jdvD882T8-29" value="Create" style="endArrow=open;endSize=12;dashed=1;html=1;rounded=0;exitX=0.25;exitY=0;exitDx=0;exitDy=0;entryX=0.5;entryY=1;entryDx=0;entryDy=0;" parent="WIyWlLk6GJQsqaUBKTNV-1" source="_aCv5gPqLr9jdvD882T8-28" target="r1MHjQ_pWAlFVOpTU09R-12" edge="1">
          <mxGeometry width="160" relative="1" as="geometry">
            <mxPoint x="1420" y="1030" as="sourcePoint" />
            <mxPoint x="1600" y="690" as="targetPoint" />
            <Array as="points">
              <mxPoint x="1990" y="760" />
              <mxPoint x="1300" y="760" />
            </Array>
          </mxGeometry>
        </mxCell>
        <mxCell id="_aCv5gPqLr9jdvD882T8-30" value="Create" style="endArrow=open;endSize=12;dashed=1;html=1;rounded=0;exitX=0.5;exitY=0;exitDx=0;exitDy=0;entryX=0.5;entryY=1;entryDx=0;entryDy=0;" parent="WIyWlLk6GJQsqaUBKTNV-1" source="_aCv5gPqLr9jdvD882T8-28" target="_aCv5gPqLr9jdvD882T8-24" edge="1">
          <mxGeometry width="160" relative="1" as="geometry">
            <mxPoint x="2540" y="840" as="sourcePoint" />
            <mxPoint x="1720" y="600" as="targetPoint" />
            <Array as="points">
              <mxPoint x="2080" y="660" />
              <mxPoint x="1700" y="660" />
            </Array>
          </mxGeometry>
        </mxCell>
        <mxCell id="_aCv5gPqLr9jdvD882T8-31" value="" style="endArrow=open;endSize=12;dashed=1;html=1;rounded=0;exitX=0.5;exitY=0;exitDx=0;exitDy=0;entryX=0.5;entryY=1;entryDx=0;entryDy=0;" parent="WIyWlLk6GJQsqaUBKTNV-1" source="_aCv5gPqLr9jdvD882T8-28" target="_aCv5gPqLr9jdvD882T8-25" edge="1">
          <mxGeometry width="160" relative="1" as="geometry">
            <mxPoint x="2090" y="850" as="sourcePoint" />
            <mxPoint x="1760" y="610" as="targetPoint" />
            <Array as="points">
              <mxPoint x="2080" y="660" />
              <mxPoint x="2110" y="660" />
            </Array>
          </mxGeometry>
        </mxCell>
        <mxCell id="_aCv5gPqLr9jdvD882T8-32" value="Create" style="endArrow=open;endSize=12;dashed=1;html=1;rounded=0;exitX=0.5;exitY=0;exitDx=0;exitDy=0;entryX=0.5;entryY=1;entryDx=0;entryDy=0;" parent="WIyWlLk6GJQsqaUBKTNV-1" source="_aCv5gPqLr9jdvD882T8-28" target="_aCv5gPqLr9jdvD882T8-21" edge="1">
          <mxGeometry width="160" relative="1" as="geometry">
            <mxPoint x="2100" y="860" as="sourcePoint" />
            <mxPoint x="1770" y="620" as="targetPoint" />
            <Array as="points">
              <mxPoint x="2080" y="660" />
              <mxPoint x="2730" y="660" />
            </Array>
          </mxGeometry>
        </mxCell>
        <mxCell id="2ViLpbnZnQWSCIuU-7lu-3" value="Create" style="edgeLabel;html=1;align=center;verticalAlign=middle;resizable=0;points=[];" vertex="1" connectable="0" parent="_aCv5gPqLr9jdvD882T8-32">
          <mxGeometry x="-0.6792" relative="1" as="geometry">
            <mxPoint as="offset" />
          </mxGeometry>
        </mxCell>
        <mxCell id="_aCv5gPqLr9jdvD882T8-33" value="&lt;p style=&quot;margin:0px;margin-top:4px;text-align:center;&quot;&gt;&lt;b&gt;public class House&lt;/b&gt;&lt;/p&gt;&lt;hr&gt;private final int capacity&lt;br&gt;private String houseName&lt;br&gt;&lt;hr size=&quot;1&quot;&gt;&lt;p style=&quot;margin:0px;margin-left:4px;&quot;&gt;public House(int capacity, String houseName)&lt;/p&gt;&lt;hr&gt;&lt;p style=&quot;margin: 0px 0px 0px 4px;&quot;&gt;public int getCapacity()&lt;/p&gt;&lt;p style=&quot;margin: 0px 0px 0px 4px;&quot;&gt;public void setHouseName(String houseName)&lt;/p&gt;&lt;p style=&quot;margin: 0px 0px 0px 4px;&quot;&gt;public String getHouseName()&lt;/p&gt;&lt;p style=&quot;margin: 0px 0px 0px 4px;&quot;&gt;public String toString()&lt;/p&gt;&lt;p style=&quot;margin: 0px 0px 0px 4px;&quot;&gt;public int hashCode()&lt;/p&gt;&lt;p style=&quot;margin: 0px 0px 0px 4px;&quot;&gt;&lt;span style=&quot;background-color: rgb(26, 26, 26);&quot;&gt;public boolean equals(Object obj)&lt;/span&gt;&lt;/p&gt;" style="verticalAlign=top;align=left;overflow=fill;fontSize=12;fontFamily=Helvetica;html=1;whiteSpace=wrap;" parent="WIyWlLk6GJQsqaUBKTNV-1" vertex="1">
          <mxGeometry x="2990" y="440" width="360" height="200" as="geometry" />
        </mxCell>
        <mxCell id="_aCv5gPqLr9jdvD882T8-35" value="Create" style="endArrow=open;endSize=12;dashed=1;html=1;rounded=0;exitX=0.75;exitY=0;exitDx=0;exitDy=0;entryX=0.5;entryY=1;entryDx=0;entryDy=0;" parent="WIyWlLk6GJQsqaUBKTNV-1" source="_aCv5gPqLr9jdvD882T8-28" target="_aCv5gPqLr9jdvD882T8-33" edge="1">
          <mxGeometry width="160" relative="1" as="geometry">
            <mxPoint x="2570" y="870" as="sourcePoint" />
            <mxPoint x="3220" y="630" as="targetPoint" />
            <Array as="points">
              <mxPoint x="2170" y="760" />
              <mxPoint x="3170" y="760" />
            </Array>
          </mxGeometry>
        </mxCell>
        <mxCell id="_aCv5gPqLr9jdvD882T8-38" value="&lt;p style=&quot;margin:0px;margin-top:4px;text-align:center;&quot;&gt;&lt;b&gt;public enum RoofMaterial&lt;/b&gt;&lt;/p&gt;&lt;hr size=&quot;1&quot;&gt;&lt;p style=&quot;margin:0px;margin-left:4px;&quot;&gt;WOOD (&quot;Дерево&quot;)&lt;/p&gt;&lt;p style=&quot;margin:0px;margin-left:4px;&quot;&gt;METAL (&quot;Металл&quot;)&lt;/p&gt;&lt;p style=&quot;margin:0px;margin-left:4px;&quot;&gt;ROOF_TILE (&quot;Черепица&quot;)&lt;/p&gt;&lt;hr&gt;private final String materialName&lt;hr&gt;RoofMaterial(String materialName)&lt;hr&gt;public String toString()" style="verticalAlign=top;align=left;overflow=fill;fontSize=12;fontFamily=Helvetica;html=1;whiteSpace=wrap;" parent="WIyWlLk6GJQsqaUBKTNV-1" vertex="1">
          <mxGeometry x="3045" y="-90" width="250" height="170" as="geometry" />
        </mxCell>
        <mxCell id="_aCv5gPqLr9jdvD882T8-39" value="&lt;p style=&quot;margin:0px;margin-top:4px;text-align:center;&quot;&gt;&lt;b&gt;public class Roof&lt;/b&gt;&lt;/p&gt;private RoofMaterial roofMaterial&lt;br&gt;&lt;hr size=&quot;1&quot;&gt;&lt;p style=&quot;margin:0px;margin-left:4px;&quot;&gt;public Roof(RoofMaterial roofMaterial)&lt;/p&gt;&lt;hr&gt;&lt;p style=&quot;margin: 0px 0px 0px 4px;&quot;&gt;public void setRoofMaterial(Roofmaterial roofMaterial)&lt;/p&gt;&lt;p style=&quot;margin: 0px 0px 0px 4px;&quot;&gt;public RoofMaterial getRoofMaterial()&lt;/p&gt;&lt;p style=&quot;margin: 0px 0px 0px 4px;&quot;&gt;public void setRoofMaterial(RoofMaterial roofMaterial)&lt;/p&gt;&lt;p style=&quot;margin: 0px 0px 0px 4px;&quot;&gt;public String toString()&lt;/p&gt;&lt;p style=&quot;margin: 0px 0px 0px 4px;&quot;&gt;public int hashCode()&lt;/p&gt;&lt;p style=&quot;margin: 0px 0px 0px 4px;&quot;&gt;public boolean equals(Object obj)&lt;/p&gt;" style="verticalAlign=top;align=left;overflow=fill;fontSize=12;fontFamily=Helvetica;html=1;whiteSpace=wrap;" parent="WIyWlLk6GJQsqaUBKTNV-1" vertex="1">
          <mxGeometry x="2990" y="160" width="360" height="165" as="geometry" />
        </mxCell>
        <mxCell id="_aCv5gPqLr9jdvD882T8-40" value="Use" style="endArrow=open;endSize=12;dashed=1;html=1;rounded=0;exitX=0.5;exitY=0;exitDx=0;exitDy=0;entryX=0.5;entryY=1;entryDx=0;entryDy=0;" parent="WIyWlLk6GJQsqaUBKTNV-1" source="_aCv5gPqLr9jdvD882T8-39" target="_aCv5gPqLr9jdvD882T8-38" edge="1">
          <mxGeometry width="160" relative="1" as="geometry">
            <mxPoint x="2900" y="230" as="sourcePoint" />
            <mxPoint x="3100" y="90" as="targetPoint" />
            <Array as="points" />
          </mxGeometry>
        </mxCell>
        <mxCell id="_aCv5gPqLr9jdvD882T8-41" value="Use" style="endArrow=open;endSize=12;dashed=1;html=1;rounded=0;exitX=0.5;exitY=0;exitDx=0;exitDy=0;entryX=0.5;entryY=1;entryDx=0;entryDy=0;" parent="WIyWlLk6GJQsqaUBKTNV-1" source="_aCv5gPqLr9jdvD882T8-33" target="_aCv5gPqLr9jdvD882T8-39" edge="1">
          <mxGeometry width="160" relative="1" as="geometry">
            <mxPoint x="3160" y="405" as="sourcePoint" />
            <mxPoint x="3160" y="325" as="targetPoint" />
            <Array as="points" />
          </mxGeometry>
        </mxCell>
      </root>
    </mxGraphModel>
  </diagram>
</mxfile>
